<svg width="446" height="495" viewBox="0 0 446 495" fill="none" xmlns="http://www.w3.org/2000/svg">
<path d="M21.5806 58.351C199.457 -81.298 416.899 114.407 217.114 255.04C129.811 316.669 244.581 339.944 102.018 335.354C96.4589 280.937 91.2272 264.874 103.979 246.189C126.868 212.424 166.432 206.195 189.321 169.152C215.152 127.52 183.108 79.0033 118.693 96.7053C50.0278 115.391 72.2624 142.927 21.5806 58.351Z" fill="#00D6CA"/>
<path d="M79.4562 424.848C81.745 357.646 185.725 361.579 183.436 428.454C181.147 495.328 77.1673 492.378 79.4562 424.848Z" fill="#00D6CA"/>
<path d="M132.427 337.321C123.925 337.321 113.789 336.993 102.018 336.666H100.71V335.354C99.7286 325.52 98.7477 316.997 97.7668 309.457C93.843 275.364 92.2081 260.94 102.998 245.205C114.116 228.815 129.484 218.652 144.198 208.818C160.22 198.328 176.569 187.182 188.34 168.497C199.784 150.139 199.784 129.159 188.667 114.079C175.261 96.0497 149.43 90.149 119.674 98.3444C102.018 103.262 90.5732 108.507 82.3987 112.44C59.1832 123.258 58.8562 122.275 30.736 75.3973C27.7932 70.4801 24.5234 65.2351 21.2536 59.3344L20.5996 58.0232L21.5805 57.0397C82.0718 8.85099 155.969 -4.58941 218.095 21.9636C263.545 41.3046 293.301 77.692 297.551 119.98C302.783 168.169 274.663 216.358 218.095 256.351C180.166 283.232 181.147 302.245 181.8 315.03C182.127 320.93 182.454 326.175 178.531 329.781C173.299 335.354 160.874 337.321 132.427 337.321ZM103.325 333.715C150.737 335.354 170.356 333.715 176.242 327.815C178.858 324.864 178.858 320.93 178.531 315.358C177.877 301.917 176.896 281.593 216.133 253.728C271.72 214.719 299.513 167.185 294.608 120.308C290.031 79.3311 261.257 43.5993 216.787 24.9139C155.969 -0.655631 84.0336 11.8013 23.5424 58.6788C26.8122 63.9238 29.755 68.8411 32.3709 73.4305C59.5102 118.997 59.5102 118.997 80.1099 109.162C88.6113 105.228 100.383 99.6556 118.039 94.7384C149.43 86.2152 176.569 92.4437 190.629 111.457C202.727 127.848 202.727 150.139 190.629 169.808C178.531 189.477 161.855 200.623 145.506 211.113C130.465 221.275 116.078 230.781 105.287 246.517C95.1509 261.268 96.7858 274.053 100.71 308.473C101.364 316.341 102.344 324.209 103.325 333.715Z" fill="#00D6CA"/>
<path d="M131.773 478.609C131.119 478.609 130.465 478.609 129.811 478.609C103.979 477.626 76.8401 460.579 78.148 424.848C78.802 405.179 87.9574 389.772 103.979 381.248C121.636 371.742 145.179 372.397 162.509 383.215C177.877 392.722 186.051 408.785 185.397 428.454C184.089 463.202 156.95 478.609 131.773 478.609ZM81.0908 424.848C80.1099 458.285 105.614 474.675 129.811 475.331C154.007 476.315 180.82 461.891 181.801 428.126C182.454 409.768 174.934 395.017 160.22 385.838C143.871 375.675 121.963 375.02 104.96 383.871C90.2462 392.066 81.7448 406.49 81.0908 424.848Z" fill="#00D6CA"/>
<path d="M132.1 352.073C123.271 352.073 113.135 351.745 101.364 351.417L86.9765 351.089L85.6686 336.993C84.6877 327.159 83.7067 318.636 82.7258 311.096C78.475 275.364 76.5132 257.334 90.2463 237.01L90.5733 236.682L93.1891 238.649L92.8621 238.977C79.783 258.318 81.7448 275.692 85.9956 310.768C86.9765 318.308 87.9574 326.831 88.9384 336.666L90.2463 348.139L101.691 348.467C158.912 350.434 177.223 348.139 187.032 338.305C189.975 335.354 191.61 332.076 192.591 328.142L195.861 328.798C194.88 333.387 192.591 337.321 189.321 340.599C180.493 348.795 167.086 352.073 132.1 352.073Z" fill="#00D6CA"/>
<path d="M184.744 144.894L181.474 144.566C181.801 142.927 181.801 141.288 181.801 139.977C181.801 135.06 180.82 130.47 178.531 126.536C172.972 116.374 161.528 110.146 146.487 109.818C144.198 109.818 141.909 109.818 139.62 109.818L139.293 106.54C141.582 106.212 144.198 106.212 146.487 106.54C162.509 107.195 175.261 113.752 181.147 124.897C183.763 129.487 184.744 134.732 184.744 139.977C185.071 141.288 184.744 142.927 184.744 144.894Z" fill="#00D6CA"/>
<path d="M65.0689 132.765C64.7419 132.765 64.415 132.765 64.088 132.765C46.4311 132.109 39.2375 119.652 17.0029 82.9371C14.0601 78.0199 11.1173 72.7748 7.52053 66.8742L0 54.4172L11.4443 45.5662C39.8915 23.2748 70.3006 7.86755 102.018 0L102.672 3.27815C71.6085 10.8179 41.5264 26.2252 13.4062 48.1887L4.25073 55.4007L10.1364 65.2351C13.7331 71.1358 16.676 76.3808 19.6188 81.298C40.8724 117.03 48.066 129.159 64.088 129.487C68.0117 129.487 71.6085 128.831 76.1862 127.192L77.1672 130.142C72.9164 131.781 68.9927 132.765 65.0689 132.765Z" fill="#00D6CA"/>
<path d="M270.085 230.454L267.796 228.159C295.59 198 309.977 164.235 309.977 131.126C309.977 124.242 309.323 117.03 308.015 110.474L311.285 109.818C312.593 117.03 313.247 124.242 313.247 131.126C313.247 165.219 298.205 199.639 270.085 230.454Z" fill="#00D6CA"/>
<path d="M129.484 493.361C96.4588 492.377 63.1069 469.103 63.1069 426.815C63.1069 425.831 63.1069 425.175 63.1069 424.192C63.4339 415.997 64.7418 408.457 67.3577 401.573L70.3005 402.556C67.6846 409.113 66.3767 416.652 66.3767 424.192C66.3767 425.175 66.3767 425.831 66.3767 426.815C66.3767 466.808 98.0937 488.772 129.157 490.083L129.484 493.361ZM191.61 459.924L188.667 458.285C193.572 449.762 196.188 439.599 196.515 428.454C196.515 427.47 196.515 426.815 196.515 425.831C196.515 412.391 192.918 400.589 186.378 390.427L188.994 388.46C196.188 398.95 199.784 411.407 199.784 425.503C199.784 426.487 199.784 427.142 199.784 428.126C199.457 440.255 196.515 450.745 191.61 459.924Z" fill="#00D6CA"/>
<path d="M215.152 153.089C353.792 44.255 522.513 196.689 367.198 306.179C299.513 354.04 388.451 372.397 277.605 368.464C273.355 326.175 269.104 313.719 279.24 299.295C297.224 273.07 327.96 268.152 345.617 239.305C365.563 206.851 340.712 169.152 290.685 182.921C237.714 197.344 255.044 218.652 215.152 153.089Z" fill="#0087EB"/>
<path d="M260.603 437.96C262.237 385.51 343.001 388.788 341.367 440.583C339.405 493.033 258.641 490.738 260.603 437.96Z" fill="#0087EB"/>
<path d="M301.475 370.43C294.935 370.43 287.088 370.43 277.932 370.103H276.624V368.791C275.97 361.252 274.99 354.368 274.336 348.467C271.066 321.586 270.085 310.768 278.259 298.311C287.088 285.527 298.859 277.659 310.303 269.791C322.729 261.596 335.481 253.073 344.309 238.321C353.138 224.225 353.138 207.834 344.636 196.361C334.173 182.593 314.227 178.003 291.339 184.232C277.605 187.838 268.777 192.099 262.237 195.377C243.927 203.901 243.273 202.589 221.365 166.202C219.076 162.596 216.787 158.334 213.844 153.745L213.19 152.434L214.171 151.45C262.237 113.752 319.786 103.589 368.506 123.914C403.819 138.993 427.035 167.513 430.632 200.623C434.556 237.993 412.648 276.02 368.506 307.162C339.078 327.815 340.058 342.894 340.385 352.729C340.712 357.318 340.712 361.579 337.77 364.53C333.519 368.791 323.709 370.43 301.475 370.43ZM279.24 366.825C315.862 368.136 330.903 366.825 335.154 362.235C337.116 360.268 337.116 356.99 336.789 353.056C336.135 342.566 335.481 326.503 366.217 304.868C409.378 274.381 430.959 237.666 427.035 201.606C423.765 169.808 401.204 142.272 366.871 127.52C319.786 107.523 263.872 117.358 217.114 153.745C219.403 157.679 221.692 161.613 223.981 164.891C245.234 199.639 245.234 199.639 260.602 192.427C267.142 189.477 276.297 185.215 290.031 181.281C314.554 174.725 335.808 179.642 346.925 194.394C356.407 207.179 356.407 224.553 346.925 239.96C337.443 255.368 324.363 263.891 311.938 272.414C300.167 280.281 289.05 287.493 280.548 299.95C272.701 311.424 274.009 321.258 276.951 347.811C277.932 353.384 278.586 359.613 279.24 366.825Z" fill="#0087EB"/>
<path d="M301.148 480.248C292.646 480.248 284.145 477.954 276.951 473.692C264.853 466.152 258.314 453.368 258.968 437.96C259.949 410.096 282.183 397.967 302.129 398.623C323.056 399.278 343.982 414.03 343.001 440.911C342.347 456.318 335.154 468.447 322.729 475.331C315.862 478.609 308.342 480.248 301.148 480.248ZM261.91 438.288C261.583 452.384 267.142 464.185 278.259 471.07C290.685 478.937 307.688 479.265 320.767 472.381C332.211 466.152 339.078 455.007 339.405 440.911C340.386 415.013 320.44 402.884 301.802 402.228C283.491 401.245 262.891 412.391 261.91 438.288Z" fill="#0087EB"/>
<path d="M301.475 385.182C294.609 385.182 286.434 384.854 277.279 384.854L262.892 384.527L261.584 370.43C260.93 363.219 259.949 356.662 259.295 351.089V350.434C256.025 321.586 254.39 307.162 265.834 290.116C269.758 284.543 274.336 279.298 279.895 274.381L282.183 276.676C276.952 281.593 272.374 286.51 268.777 291.755C257.987 307.49 259.622 321.586 262.892 349.778V350.434C263.546 356.007 264.2 362.563 265.18 370.103L266.488 381.576L277.933 381.904C324.037 383.543 338.097 381.576 346.271 373.053C352.811 366.497 352.484 358.301 352.157 352.728C352.157 350.762 351.83 348.467 352.157 345.844L355.427 346.172C355.1 348.467 355.427 350.434 355.427 352.401C355.754 358.301 356.081 367.48 348.56 375.348C340.713 382.232 329.922 385.182 301.475 385.182Z" fill="#0087EB"/>
<path d="M339.077 221.275L335.808 220.619C336.135 218.98 336.135 217.669 336.135 216.03C336.135 212.752 335.481 209.801 333.846 207.179C330.576 200.95 323.382 197.017 314.227 196.033L314.554 192.755C325.017 193.738 332.865 198.328 336.789 205.54C338.424 208.818 339.404 212.096 339.404 216.03C339.731 217.997 339.404 219.636 339.077 221.275Z" fill="#0087EB"/>
<path d="M249.158 214.391C248.831 214.391 248.504 214.391 248.177 214.391C232.482 213.735 225.943 202.917 208.613 173.742C206.324 170.136 204.035 165.874 201.092 161.285L193.572 148.828L205.016 139.977C233.463 117.685 265.507 103.917 297.878 99.9834L298.205 103.262C266.488 106.868 235.098 120.308 206.978 142.272L197.823 149.483L203.708 159.318C206.324 163.907 208.94 167.841 211.229 171.775C227.905 199.967 234.117 210.457 248.177 210.785C254.717 211.113 260.276 208.49 266.815 205.212C269.431 203.901 272.047 202.589 275.317 201.278L276.625 204.228C273.355 205.54 270.739 206.851 268.45 207.834C261.584 211.768 256.025 214.391 249.158 214.391Z" fill="#0087EB"/>
<path d="M418.86 280.281L416.245 278.315C433.575 256.351 442.403 233.076 442.403 209.801C442.403 204.228 441.749 198.328 440.768 192.755L444.038 192.099C445.019 198 445.673 203.901 445.673 209.801C446 234.06 436.844 257.99 418.86 280.281Z" fill="#0087EB"/>
<path d="M298.859 495C271.72 494.017 243.927 474.676 243.927 439.599C243.927 438.944 243.927 437.96 243.927 437.305C245.235 399.606 275.317 382.887 302.456 383.543C323.056 384.199 341.694 395.017 350.849 411.407L347.906 413.046C339.405 397.639 321.748 387.477 302.456 386.821C276.952 386.166 248.504 401.573 247.524 437.305C247.524 437.96 247.524 438.616 247.524 439.599C247.524 472.709 273.682 490.738 299.186 491.722L298.859 495Z" fill="#0087EB"/>
</svg>
